<svg width="16" height="19" viewBox="0 0 16 19" fill="none" xmlns="http://www.w3.org/2000/svg">
<path d="M0 10.5C0 6.08172 3.58172 2.5 8 2.5C12.4183 2.5 16 6.08172 16 10.5C16 14.9183 12.4183 18.5 8 18.5C3.58172 18.5 0 14.9183 0 10.5Z" fill="#52ABF9"/>
<path d="M9.03761 12.7459V13.956C9.03761 14.0497 9.0034 14.1307 8.93497 14.1991C8.86654 14.2675 8.78551 14.3018 8.69187 14.3018H7.30887C7.21524 14.3018 7.1342 14.2675 7.06577 14.1991C6.99734 14.1307 6.96313 14.0497 6.96313 13.956V12.7459C6.96313 12.6523 6.99734 12.5712 7.06577 12.5028C7.1342 12.4344 7.21524 12.4001 7.30887 12.4001H8.69187C8.78551 12.4001 8.86654 12.4344 8.93497 12.5028C9.0034 12.5712 9.03761 12.6523 9.03761 12.7459ZM9.19968 7.04106L9.04842 11.19C9.04482 11.2837 9.0079 11.3647 8.93767 11.4331C8.86744 11.5016 8.78551 11.5358 8.69187 11.5358H7.30887C7.21524 11.5358 7.1333 11.5016 7.06307 11.4331C6.99284 11.3647 6.95592 11.2837 6.95232 11.19L6.80106 7.04106C6.79746 6.94742 6.82897 6.86639 6.8956 6.79796C6.96223 6.72953 7.04236 6.69531 7.136 6.69531H8.86474C8.95838 6.69531 9.03851 6.72953 9.10514 6.79796C9.17177 6.86639 9.20328 6.94742 9.19968 7.04106Z" fill="white"/>
</svg>
