<svg width="16" height="17" viewBox="0 0 16 17" fill="none" xmlns="http://www.w3.org/2000/svg">
<path d="M0 8.60938C0 4.1911 3.58172 0.609375 8 0.609375C12.4183 0.609375 16 4.1911 16 8.60938C16 13.0277 12.4183 16.6094 8 16.6094C3.58172 16.6094 0 13.0277 0 8.60938Z" fill="#E53B40"/>
<path d="M9.03761 10.8553V12.0654C9.03761 12.159 9.0034 12.2401 8.93497 12.3085C8.86654 12.3769 8.78551 12.4111 8.69187 12.4111H7.30887C7.21524 12.4111 7.1342 12.3769 7.06577 12.3085C6.99734 12.2401 6.96313 12.159 6.96313 12.0654V10.8553C6.96313 10.7616 6.99734 10.6806 7.06577 10.6122C7.1342 10.5437 7.21524 10.5095 7.30887 10.5095H8.69187C8.78551 10.5095 8.86654 10.5437 8.93497 10.6122C9.0034 10.6806 9.03761 10.7616 9.03761 10.8553ZM9.19968 5.15044L9.04842 9.29941C9.04482 9.39304 9.0079 9.47408 8.93767 9.54251C8.86744 9.61094 8.78551 9.64515 8.69187 9.64515H7.30887C7.21524 9.64515 7.1333 9.61094 7.06307 9.54251C6.99284 9.47408 6.95592 9.39304 6.95232 9.29941L6.80106 5.15044C6.79746 5.0568 6.82897 4.97576 6.8956 4.90733C6.96223 4.8389 7.04236 4.80469 7.136 4.80469H8.86474C8.95838 4.80469 9.03851 4.8389 9.10514 4.90733C9.17177 4.97576 9.20328 5.0568 9.19968 5.15044Z" fill="white"/>
</svg>
