<svg width="24" height="24" viewBox="0 0 24 24" fill="none" xmlns="http://www.w3.org/2000/svg">
<mask id="mask0_13179_2416" style="mask-type:alpha" maskUnits="userSpaceOnUse" x="0" y="0" width="24" height="24">
<rect width="24" height="24" fill="#D9D9D9"/>
</mask>
<g mask="url(#mask0_13179_2416)">
<path d="M14.9396 16.592C13.6267 16.5904 12.3401 16.2249 11.2233 15.5364C10.1065 14.8478 9.20343 13.8634 8.61488 12.6928C8.02634 11.5221 7.77544 10.2114 7.89017 8.90687C8.00491 7.60231 8.48078 6.3552 9.26468 5.30469C8.30342 6.00595 7.52312 6.92514 6.98812 7.98642C6.45313 9.04771 6.17878 10.2207 6.18771 11.4085C6.19102 13.3164 6.91534 15.1529 8.21615 16.5516C9.51697 17.9503 11.2986 18.8085 13.2057 18.9549C15.1128 19.1013 17.0052 18.525 18.5051 17.3412C20.0051 16.1575 21.0026 14.453 21.2984 12.5681C20.7309 13.7718 19.8315 14.7894 18.7054 15.502C17.5794 16.2146 16.2731 16.5927 14.9396 16.592Z" fill="#1C1C1C"/>
<path d="M13.5762 20.6884C11.1372 20.6884 8.79811 19.722 7.07346 18.0017C5.34883 16.2814 4.37992 13.9482 4.37992 11.5154C4.37992 9.08257 5.34883 6.74939 7.07346 5.02911C8.79811 3.30884 11.1372 2.3424 13.5762 2.3424C14.5036 2.33706 15.4263 2.47511 16.3112 2.75165C14.9868 2.12333 13.5387 1.79717 12.0721 1.79688C10.4241 1.80168 8.8029 2.21268 7.3526 2.9933C5.90229 3.77392 4.66789 4.89997 3.75918 6.2713C2.85047 7.64262 2.29562 9.21669 2.14398 10.8535C1.99235 12.4904 2.24863 14.1392 2.89004 15.6534C3.53145 17.1675 4.53808 18.5002 5.82042 19.5327C7.10276 20.5652 8.62106 21.2656 10.2402 21.5714C11.8594 21.8774 13.5293 21.7795 15.1014 21.2863C16.6734 20.7931 18.099 19.9201 19.2512 18.7447C17.6333 20.0124 15.6335 20.6974 13.5762 20.6884Z" fill="#1C1C1C"/>
<path d="M19.2228 4.96928C19.7442 5.6962 20.0454 6.55729 20.0902 7.45005C20.1351 8.34279 19.9219 9.22962 19.4759 10.0049C19.0299 10.7803 18.37 11.4114 17.5747 11.8233C16.7793 12.2352 15.8821 12.4105 14.9897 12.3283C14.0974 12.246 13.2475 11.9098 12.5413 11.3595C11.8351 10.8093 11.3022 10.0682 11.0062 9.2245C10.7101 8.38081 10.6634 7.47003 10.8715 6.60058C11.0796 5.73114 11.5337 4.93964 12.1799 4.32031C11.3854 4.8601 10.7443 5.59555 10.3187 6.45531C9.89305 7.31507 9.69743 8.26995 9.75079 9.22733C9.80414 10.1847 10.1047 11.1121 10.6232 11.9195C11.1417 12.7269 11.8606 13.387 12.7102 13.8356C13.5598 14.2842 14.5112 14.5062 15.472 14.4801C16.4331 14.4539 17.3709 14.1805 18.1947 13.6863C19.0185 13.1921 19.7002 12.4939 20.1738 11.6595C20.6474 10.8251 20.8967 9.8827 20.8976 8.92384C20.8862 7.43646 20.284 6.0143 19.2228 4.96928Z" fill="#1C1C1C"/>
</g>
</svg>
