<svg width="25" height="24" viewBox="0 0 25 24" fill="none" xmlns="http://www.w3.org/2000/svg">
<mask id="mask0_13179_1974" style="mask-type:alpha" maskUnits="userSpaceOnUse" x="0" y="0" width="25" height="24">
<rect x="0.75" width="24" height="24" fill="#D9D9D9"/>
</mask>
<g mask="url(#mask0_13179_1974)">
<path d="M17.7249 15.3859L13.9976 12H11.4974L7.77018 15.3859C6.72766 16.3269 6.38631 17.7754 6.89373 19.0854C7.40115 20.3863 8.63741 21.2258 10.0305 21.2258H15.4645C16.8668 21.2258 18.0939 20.3863 18.6013 19.0854C19.1087 17.7754 18.7674 16.3269 17.7249 15.3859ZM14.4312 17.6647H11.073C10.7224 17.6647 10.4457 17.3787 10.4457 17.0373C10.4457 16.6959 10.7317 16.4099 11.073 16.4099H14.4312C14.7818 16.4099 15.0586 16.6959 15.0586 17.0373C15.0586 17.3787 14.7726 17.6647 14.4312 17.6647Z" fill="#019B5B"/>
<path d="M18.6122 4.91383C18.1048 3.61299 16.8685 2.77344 15.4754 2.77344H10.0322C8.63908 2.77344 7.40282 3.61299 6.8954 4.91383C6.39721 6.2239 6.73856 7.67235 7.78108 8.61339L11.5083 11.9993H14.0085L17.7357 8.61339C18.769 7.67235 19.1104 6.2239 18.6122 4.91383ZM14.4329 7.59855H11.0747C10.7241 7.59855 10.4473 7.31255 10.4473 6.97119C10.4473 6.62983 10.7333 6.34383 11.0747 6.34383H14.4329C14.7835 6.34383 15.0603 6.62983 15.0603 6.97119C15.0603 7.31255 14.7743 7.59855 14.4329 7.59855Z" fill="#019B5B"/>
</g>
</svg>
