<svg width="25" height="24" viewBox="0 0 25 24" fill="none" xmlns="http://www.w3.org/2000/svg">
<mask id="mask0_13179_2600" style="mask-type:alpha" maskUnits="userSpaceOnUse" x="0" y="0" width="25" height="24">
<rect x="0.5" width="24" height="24" fill="#D9D9D9"/>
</mask>
<g mask="url(#mask0_13179_2600)">
<path d="M8.89999 3V5.7" stroke="#1C1C1C" stroke-width="1.5" stroke-miterlimit="10" stroke-linecap="round" stroke-linejoin="round"/>
<path d="M16.0992 3V5.7" stroke="#1C1C1C" stroke-width="1.5" stroke-miterlimit="10" stroke-linecap="round" stroke-linejoin="round"/>
<path d="M4.84921 9.38281H20.1492" stroke="#1C1C1C" stroke-width="1.5" stroke-miterlimit="10" stroke-linecap="round" stroke-linejoin="round"/>
<path d="M20.6 8.85156V16.5016C20.6 19.2016 19.25 21.0016 16.1 21.0016H8.89999C5.74999 21.0016 4.39999 19.2016 4.39999 16.5016V8.85156C4.39999 6.15156 5.74999 4.35156 8.89999 4.35156H16.1C19.25 4.35156 20.6 6.15156 20.6 8.85156Z" stroke="#1C1C1C" stroke-width="1.5" stroke-miterlimit="10" stroke-linecap="round" stroke-linejoin="round"/>
<path d="M15.8255 13.532H15.8336" stroke="#1C1C1C" stroke-width="2" stroke-linecap="round" stroke-linejoin="round"/>
<path d="M15.8255 16.2312H15.8336" stroke="#1C1C1C" stroke-width="2" stroke-linecap="round" stroke-linejoin="round"/>
<path d="M12.4935 13.532H12.5016" stroke="#1C1C1C" stroke-width="2" stroke-linecap="round" stroke-linejoin="round"/>
<path d="M12.4935 16.2312H12.5016" stroke="#1C1C1C" stroke-width="2" stroke-linecap="round" stroke-linejoin="round"/>
<path d="M9.16536 13.532H9.17345" stroke="#1C1C1C" stroke-width="2" stroke-linecap="round" stroke-linejoin="round"/>
<path d="M9.16536 16.2312H9.17345" stroke="#1C1C1C" stroke-width="2" stroke-linecap="round" stroke-linejoin="round"/>
</g>
</svg>
