<svg width="25" height="24" viewBox="0 0 25 24" fill="none" xmlns="http://www.w3.org/2000/svg">
<mask id="mask0_13179_2433" style="mask-type:alpha" maskUnits="userSpaceOnUse" x="0" y="0" width="25" height="24">
<rect x="0.5" width="24" height="24" fill="#D9D9D9"/>
</mask>
<g mask="url(#mask0_13179_2433)">
<path d="M16.8253 4.65802V3.23759C16.8253 2.86427 16.5157 2.55469 16.1424 2.55469C15.7691 2.55469 15.4595 2.86427 15.4595 3.23759V4.60338H9.54102V3.23759C9.54102 2.86427 9.23144 2.55469 8.85812 2.55469C8.4848 2.55469 8.17522 2.86427 8.17522 3.23759V4.65802C5.71679 4.88565 4.52399 6.35161 4.34188 8.52778C4.32367 8.79183 4.5422 9.01036 4.79715 9.01036H20.2034C20.4674 9.01036 20.6859 8.78273 20.6586 8.52778C20.4765 6.35161 19.2837 4.88565 16.8253 4.65802Z" fill="#019B5B"/>
<path d="M19.7847 10.375H5.2162C4.7154 10.375 4.30566 10.7847 4.30566 11.2855V16.8944C4.30566 19.626 5.67146 21.4471 8.85832 21.4471H16.1426C19.3294 21.4471 20.6952 19.626 20.6952 16.8944V11.2855C20.6952 10.7847 20.2855 10.375 19.7847 10.375ZM9.96007 17.9962C9.91454 18.0326 9.86902 18.0781 9.82349 18.1054C9.76886 18.1418 9.71422 18.1692 9.65959 18.1874C9.60496 18.2147 9.55033 18.2329 9.4957 18.242C9.43196 18.2511 9.37733 18.2602 9.31359 18.2602C9.19522 18.2602 9.07685 18.2329 8.96759 18.1874C8.84922 18.1418 8.75817 18.0781 8.66711 17.9962C8.50322 17.8232 8.40306 17.5864 8.40306 17.3497C8.40306 17.1129 8.50322 16.8762 8.66711 16.7032C8.75817 16.6213 8.84922 16.5575 8.96759 16.512C9.13148 16.4391 9.31359 16.4209 9.4957 16.4574C9.55033 16.4665 9.60496 16.4847 9.65959 16.512C9.71422 16.5302 9.76886 16.5575 9.82349 16.5939C9.86902 16.6304 9.91454 16.6668 9.96007 16.7032C10.124 16.8762 10.2241 17.1129 10.2241 17.3497C10.2241 17.5864 10.124 17.8232 9.96007 17.9962ZM9.96007 14.8093C9.78707 14.9732 9.55033 15.0733 9.31359 15.0733C9.07685 15.0733 8.84011 14.9732 8.66711 14.8093C8.50322 14.6363 8.40306 14.3996 8.40306 14.1628C8.40306 13.9261 8.50322 13.6893 8.66711 13.5163C8.92206 13.2614 9.3227 13.1794 9.65959 13.3251C9.77796 13.3707 9.87812 13.4344 9.96007 13.5163C10.124 13.6893 10.2241 13.9261 10.2241 14.1628C10.2241 14.3996 10.124 14.6363 9.96007 14.8093ZM13.1469 17.9962C12.9739 18.16 12.7372 18.2602 12.5005 18.2602C12.2637 18.2602 12.027 18.16 11.854 17.9962C11.6901 17.8232 11.5899 17.5864 11.5899 17.3497C11.5899 17.1129 11.6901 16.8762 11.854 16.7032C12.1909 16.3663 12.81 16.3663 13.1469 16.7032C13.3108 16.8762 13.411 17.1129 13.411 17.3497C13.411 17.5864 13.3108 17.8232 13.1469 17.9962ZM13.1469 14.8093C13.1014 14.8457 13.0559 14.8821 13.0104 14.9186C12.9557 14.955 12.9011 14.9823 12.8465 15.0005C12.7918 15.0278 12.7372 15.046 12.6826 15.0551C12.6188 15.0642 12.5642 15.0733 12.5005 15.0733C12.2637 15.0733 12.027 14.9732 11.854 14.8093C11.6901 14.6363 11.5899 14.3996 11.5899 14.1628C11.5899 13.9261 11.6901 13.6893 11.854 13.5163C11.9359 13.4344 12.0361 13.3707 12.1545 13.3251C12.4913 13.1794 12.892 13.2614 13.1469 13.5163C13.3108 13.6893 13.411 13.9261 13.411 14.1628C13.411 14.3996 13.3108 14.6363 13.1469 14.8093ZM16.3338 17.9962C16.1608 18.16 15.9241 18.2602 15.6873 18.2602C15.4506 18.2602 15.2138 18.16 15.0408 17.9962C14.8769 17.8232 14.7768 17.5864 14.7768 17.3497C14.7768 17.1129 14.8769 16.8762 15.0408 16.7032C15.3777 16.3663 15.9969 16.3663 16.3338 16.7032C16.4977 16.8762 16.5978 17.1129 16.5978 17.3497C16.5978 17.5864 16.4977 17.8232 16.3338 17.9962ZM16.3338 14.8093C16.2883 14.8457 16.2427 14.8821 16.1972 14.9186C16.1426 14.955 16.0879 14.9823 16.0333 15.0005C15.9787 15.0278 15.9241 15.046 15.8694 15.0551C15.8057 15.0642 15.7419 15.0733 15.6873 15.0733C15.4506 15.0733 15.2138 14.9732 15.0408 14.8093C14.8769 14.6363 14.7768 14.3996 14.7768 14.1628C14.7768 13.9261 14.8769 13.6893 15.0408 13.5163C15.1319 13.4344 15.2229 13.3707 15.3413 13.3251C15.5052 13.2523 15.6873 13.2341 15.8694 13.2705C15.9241 13.2796 15.9787 13.2978 16.0333 13.3251C16.0879 13.3433 16.1426 13.3707 16.1972 13.4071C16.2427 13.4435 16.2883 13.4799 16.3338 13.5163C16.4977 13.6893 16.5978 13.9261 16.5978 14.1628C16.5978 14.3996 16.4977 14.6363 16.3338 14.8093Z" fill="#019B5B"/>
</g>
</svg>
