<svg width="24" height="24" viewBox="0 0 24 24" fill="none" xmlns="http://www.w3.org/2000/svg">
<mask id="mask0_13179_1260" style="mask-type:alpha" maskUnits="userSpaceOnUse" x="0" y="0" width="24" height="24">
<rect width="24" height="24" fill="#D9D9D9"/>
</mask>
<g mask="url(#mask0_13179_1260)">
<path d="M9.5477 14.4598L10.9134 15.8256L14.5554 12.1836" stroke="#1C1C1C" stroke-width="1.5" stroke-linecap="round" stroke-linejoin="round"/>
<path d="M10.1773 6.53653H13.8193C15.6403 6.53653 15.6403 5.62603 15.6403 4.71553C15.6403 2.89453 14.7298 2.89453 13.8193 2.89453H10.1773C9.26679 2.89453 8.35629 2.89453 8.35629 4.71553C8.35629 6.53653 9.26679 6.53653 10.1773 6.53653Z" stroke="#1C1C1C" stroke-width="1.5" stroke-miterlimit="10" stroke-linecap="round" stroke-linejoin="round"/>
<path d="M15.642 4.73438C18.674 4.89826 20.1945 6.01818 20.1945 10.1792V15.6421C20.1945 19.2841 19.284 21.1051 14.7315 21.1051H9.2685C4.71601 21.1051 3.80551 19.2841 3.80551 15.6421V10.1792C3.80551 6.02728 5.32604 4.89826 8.358 4.73438" stroke="#1C1C1C" stroke-width="1.5" stroke-miterlimit="10" stroke-linecap="round" stroke-linejoin="round"/>
</g>
</svg>
