<svg width="24" height="25" viewBox="0 0 24 25" fill="none" xmlns="http://www.w3.org/2000/svg">
<mask id="mask0_13179_2781" style="mask-type:alpha" maskUnits="userSpaceOnUse" x="0" y="0" width="24" height="25">
<rect y="0.5" width="24" height="24" fill="#D9D9D9"/>
</mask>
<g mask="url(#mask0_13179_2781)">
<path d="M14.1314 3.5H9.89777C8.96097 3.5 8.19531 4.25665 8.19531 5.19345V6.04018C8.19531 6.97698 8.95196 7.73363 9.88876 7.73363H14.1314C15.0682 7.73363 15.8248 6.97698 15.8248 6.04018V5.19345C15.8339 4.25665 15.0682 3.5 14.1314 3.5Z" fill="#019B5B"/>
<path d="M16.7298 6.03928C16.7298 7.47151 15.5588 8.64251 14.1266 8.64251H9.89297C8.46074 8.64251 7.28974 7.47151 7.28974 6.03928C7.28974 5.53485 6.74928 5.21958 6.29889 5.45378C5.0288 6.12936 4.16406 7.47151 4.16406 9.01183V17.4881C4.16406 19.704 5.97461 21.5145 8.19051 21.5145H15.8291C18.045 21.5145 19.8555 19.704 19.8555 17.4881V9.01183C19.8555 7.47151 18.9908 6.12936 17.7207 5.45378C17.2703 5.21958 16.7298 5.53485 16.7298 6.03928ZM15.0184 13.1644L11.4153 16.7675C11.2802 16.9026 11.109 16.9656 10.9379 16.9656C10.7667 16.9656 10.5956 16.9026 10.4605 16.7675L9.1093 15.4163C8.84807 15.1551 8.84807 14.7227 9.1093 14.4615C9.37052 14.2003 9.80289 14.2003 10.0641 14.4615L10.9379 15.3352L14.0635 12.2096C14.3248 11.9483 14.7571 11.9483 15.0184 12.2096C15.2796 12.4708 15.2796 12.9032 15.0184 13.1644Z" fill="#019B5B"/>
</g>
</svg>
